G04*
G04 #@! TF.GenerationSoftware,Altium Limited,Altium Designer,20.0.2 (26)*
G04*
G04 Layer_Physical_Order=1*
G04 Layer_Color=255*
%FSLAX24Y24*%
%MOIN*%
G70*
G01*
G75*
%ADD15C,0.0060*%
%ADD16R,0.0433X0.0394*%
%ADD17R,0.0394X0.0177*%
%ADD18R,0.0350X0.0500*%
%ADD34C,0.0200*%
%ADD35C,0.0150*%
%ADD36C,0.0709*%
%ADD37C,0.2000*%
%ADD38C,0.0600*%
%ADD39C,0.0787*%
%ADD40R,0.0709X0.0709*%
%ADD41C,0.0669*%
%ADD42R,0.0669X0.0669*%
%ADD43R,0.0669X0.0669*%
%ADD44C,0.0630*%
%ADD45R,0.0630X0.0630*%
%ADD46R,0.0945X0.0945*%
%ADD47C,0.0945*%
%ADD48C,0.0220*%
G36*
X34050Y44200D02*
X33200Y43350D01*
Y43063D01*
X33192Y43000D01*
X33200Y42937D01*
Y42750D01*
X27989D01*
X27957Y42800D01*
X27990Y42881D01*
X27999Y42950D01*
X27548D01*
X27062D01*
X26662Y42550D01*
X22700D01*
X22646Y42496D01*
X22600Y42515D01*
Y45650D01*
X23550Y45650D01*
X23569Y45604D01*
X23340Y45374D01*
X23314Y45384D01*
X23246Y45393D01*
Y44992D01*
X23647D01*
X23638Y45060D01*
X23628Y45086D01*
X24088Y45546D01*
X26050D01*
Y45370D01*
X26027Y45313D01*
X26012Y45200D01*
X26027Y45087D01*
X26050Y45030D01*
Y44650D01*
X27295D01*
Y43379D01*
X27224Y43324D01*
X27151Y43229D01*
X27105Y43119D01*
X27096Y43050D01*
X27548D01*
X27999D01*
X27990Y43119D01*
X27945Y43229D01*
X27872Y43324D01*
X27777Y43397D01*
X27703Y43428D01*
Y44650D01*
X32900D01*
Y45030D01*
X32923Y45087D01*
X32938Y45200D01*
X32923Y45313D01*
X32900Y45370D01*
Y45441D01*
X32950Y45462D01*
X33083Y45329D01*
X33077Y45313D01*
X33068Y45250D01*
X33500D01*
X33932D01*
X33923Y45313D01*
X33880Y45419D01*
X33810Y45510D01*
X33719Y45580D01*
X33670Y45600D01*
X33680Y45650D01*
X34050D01*
Y44200D01*
D02*
G37*
G36*
X33100Y38265D02*
X33054Y38246D01*
X33050Y38250D01*
X32300D01*
X31850Y38700D01*
X31806Y41356D01*
X31848Y41418D01*
X31864Y41500D01*
X31848Y41582D01*
X31802Y41651D01*
X31800Y41750D01*
X31450D01*
Y41571D01*
X31436Y41500D01*
X31450Y41429D01*
Y38750D01*
X28150D01*
Y41200D01*
X27850Y41500D01*
X27614D01*
X27610Y41550D01*
X27666Y41557D01*
X27777Y41603D01*
X27872Y41676D01*
X27945Y41771D01*
X27990Y41881D01*
X27999Y41950D01*
X27548D01*
X27096D01*
X27105Y41881D01*
X27115Y41856D01*
X26996Y41737D01*
X26950Y41756D01*
Y42150D01*
X27254Y42454D01*
X27300Y42450D01*
X27300Y42450D01*
X27414Y42564D01*
X27414Y42564D01*
X27429Y42557D01*
X27548Y42542D01*
X27666Y42557D01*
X27769Y42600D01*
X33100D01*
Y38265D01*
D02*
G37*
G36*
X22300Y43700D02*
X22300Y40700D01*
X16700Y40700D01*
Y44950D01*
X17250Y45500D01*
X22300D01*
Y43700D01*
D02*
G37*
G36*
X22700Y38550D02*
Y37950D01*
X23400Y37250D01*
X24065D01*
X24089Y37226D01*
X24132Y37198D01*
X24183Y37187D01*
X24200D01*
Y34100D01*
X23900Y33800D01*
X22681D01*
X22664Y33850D01*
X22702Y33879D01*
X22781Y33983D01*
X22831Y34103D01*
X22841Y34181D01*
X21859D01*
X21869Y34103D01*
X21919Y33983D01*
X21998Y33879D01*
X22036Y33850D01*
X22019Y33800D01*
X20300D01*
X20221Y33721D01*
X18024Y35919D01*
X18043Y35965D01*
X18100D01*
Y36400D01*
Y36835D01*
X17979D01*
X17954Y36885D01*
X17965Y36900D01*
X18750D01*
X20150Y38300D01*
X20835D01*
X20879Y38250D01*
X20874Y38219D01*
X21857D01*
X21847Y38297D01*
X21797Y38417D01*
X21784Y38434D01*
X22300Y38950D01*
X22700Y38550D01*
D02*
G37*
G36*
X39650Y45875D02*
X40725Y45125D01*
X40875Y44975D01*
X40978Y37640D01*
X40939Y37601D01*
X37861Y37575D01*
X37825Y37610D01*
Y45175D01*
X37925Y45275D01*
X37775Y45425D01*
X35325D01*
Y44625D01*
X35175Y44475D01*
X34461D01*
X34426Y44511D01*
X34430Y44765D01*
X34450D01*
Y45200D01*
Y45666D01*
X34446Y45670D01*
X34450Y45925D01*
X39650Y45875D01*
D02*
G37*
G36*
X33100Y36350D02*
Y35600D01*
X31500Y34000D01*
X28550D01*
X28546Y33996D01*
X28500Y34015D01*
Y37950D01*
X31500D01*
X33100Y36350D01*
D02*
G37*
G36*
X40850Y28100D02*
X40904Y28046D01*
X40885Y28000D01*
X39378D01*
X39335Y28015D01*
Y28400D01*
X38900D01*
X38465D01*
Y28060D01*
X38415Y28033D01*
X38400Y28043D01*
Y32550D01*
X38436Y32576D01*
X38455Y32560D01*
X38473Y32533D01*
X38468Y32500D01*
X38900D01*
X39332D01*
X39325Y32550D01*
X39356Y32600D01*
X40850D01*
Y28100D01*
D02*
G37*
G36*
X33467Y32584D02*
X33531Y32557D01*
X33650Y32542D01*
X33751Y32555D01*
X33800Y32550D01*
X34100D01*
Y32231D01*
X34050Y32222D01*
X34047Y32229D01*
X33974Y32324D01*
X33879Y32397D01*
X33769Y32443D01*
X33700Y32452D01*
Y32000D01*
Y31548D01*
X33769Y31557D01*
X33879Y31603D01*
X33974Y31676D01*
X34047Y31771D01*
X34050Y31778D01*
X34100Y31769D01*
Y31500D01*
X34104Y31496D01*
X34085Y31450D01*
X33713D01*
X33650Y31458D01*
X33587Y31450D01*
X33100D01*
Y28600D01*
X32950Y28450D01*
X31000D01*
X29050Y30400D01*
X28050D01*
Y31400D01*
X28700Y32050D01*
X31150D01*
X31850Y32750D01*
X33467Y32584D01*
D02*
G37*
G36*
X37412Y32650D02*
X37377Y32563D01*
X37368Y32500D01*
X37800D01*
Y32450D01*
X37850D01*
Y32018D01*
X37913Y32027D01*
X38019Y32070D01*
X38110Y32140D01*
X38180Y32231D01*
X38200Y32280D01*
X38250Y32270D01*
Y31630D01*
X38200Y31620D01*
X38180Y31669D01*
X38110Y31760D01*
X38019Y31830D01*
X37913Y31873D01*
X37850Y31882D01*
Y31450D01*
Y31018D01*
X37913Y31027D01*
X38019Y31070D01*
X38110Y31140D01*
X38180Y31231D01*
X38200Y31280D01*
X38250Y31270D01*
Y30630D01*
X38200Y30620D01*
X38180Y30669D01*
X38110Y30760D01*
X38019Y30830D01*
X37913Y30873D01*
X37850Y30882D01*
Y30450D01*
Y30018D01*
X37913Y30027D01*
X38019Y30070D01*
X38110Y30140D01*
X38180Y30231D01*
X38200Y30280D01*
X38250Y30270D01*
Y29630D01*
X38200Y29620D01*
X38180Y29669D01*
X38110Y29760D01*
X38019Y29830D01*
X37913Y29873D01*
X37850Y29882D01*
Y29450D01*
Y29018D01*
X37913Y29027D01*
X38019Y29070D01*
X38110Y29140D01*
X38180Y29231D01*
X38200Y29280D01*
X38250Y29270D01*
Y28928D01*
X38235Y28885D01*
X37850D01*
Y28450D01*
Y28015D01*
X38235D01*
X38250Y27972D01*
Y27950D01*
X38400Y27800D01*
X40850D01*
Y21050D01*
X39800Y20000D01*
X28650D01*
Y22650D01*
X28700Y22700D01*
X28800Y22600D01*
X36500D01*
Y22700D01*
Y23850D01*
X36550Y23900D01*
X32950D01*
X32900Y23950D01*
Y26450D01*
X32187D01*
X32166Y26500D01*
X32204Y26592D01*
X32212Y26650D01*
X31800D01*
Y26750D01*
X32212D01*
X32204Y26808D01*
X32202Y26814D01*
X32438Y27050D01*
X37150D01*
X37200Y27000D01*
Y27000D01*
X37200D01*
Y27751D01*
X37305D01*
X37383Y27766D01*
X37449Y27810D01*
X37654Y28015D01*
X37750D01*
Y28400D01*
X37365D01*
Y28304D01*
X37250Y28188D01*
X37200Y28209D01*
Y32700D01*
X37386D01*
X37412Y32650D01*
D02*
G37*
G36*
X17315Y36854D02*
X17306Y36844D01*
X17262Y36778D01*
X17246Y36700D01*
Y36204D01*
X17262Y36126D01*
X17306Y36060D01*
X20100Y33266D01*
Y33000D01*
X20366D01*
X20387Y32979D01*
X20453Y32935D01*
X20531Y32920D01*
X20531Y32920D01*
X21700D01*
Y31115D01*
X21765Y31050D01*
X21765D01*
Y30750D01*
X22200D01*
X22635D01*
Y31135D01*
X22635D01*
X22620Y31170D01*
X22850Y31400D01*
X23550D01*
Y30850D01*
X22400Y29700D01*
Y29500D01*
X22100D01*
X21274Y28674D01*
X20349Y29599D01*
X20399Y29649D01*
X20349Y29670D01*
X20349Y30601D01*
X19135Y31815D01*
X16965D01*
X16946Y31796D01*
X16900Y31815D01*
X16900D01*
Y31815D01*
Y36900D01*
X17296D01*
X17315Y36854D01*
D02*
G37*
G36*
X30300Y28312D02*
Y27488D01*
X29914Y27102D01*
X29908Y27104D01*
X29850Y27112D01*
Y26700D01*
X29800D01*
Y26650D01*
X29388D01*
X29393Y26614D01*
X29055Y26276D01*
X28600Y26200D01*
X27950Y25600D01*
X25510Y24438D01*
X22124Y27823D01*
Y27900D01*
X21759D01*
Y27535D01*
X21836D01*
X25088Y24283D01*
X25080Y24233D01*
X24800Y24100D01*
X23850Y25050D01*
X21000D01*
Y28050D01*
X20985Y28065D01*
X21000Y28100D01*
X21000D01*
Y28256D01*
X21058Y28313D01*
X21294Y28077D01*
Y28000D01*
X22124D01*
Y28077D01*
X22648Y28600D01*
X23303D01*
X23322Y28554D01*
X23087Y28318D01*
X22999Y28354D01*
X22891Y28369D01*
X22782Y28354D01*
X22681Y28312D01*
X22595Y28246D01*
X22528Y28159D01*
X22486Y28058D01*
X22472Y27950D01*
X22486Y27842D01*
X22528Y27741D01*
X22595Y27654D01*
X22681Y27588D01*
X22782Y27546D01*
X22891Y27531D01*
X22999Y27546D01*
X23100Y27588D01*
X23187Y27654D01*
X23253Y27741D01*
X23295Y27842D01*
X23309Y27950D01*
X23295Y28058D01*
X23268Y28124D01*
X23743Y28600D01*
X27326D01*
X27429Y28557D01*
X27548Y28542D01*
X27666Y28557D01*
X27769Y28600D01*
X30012D01*
X30300Y28312D01*
D02*
G37*
G36*
X20986Y28386D02*
X20700Y28100D01*
Y20050D01*
X17950D01*
X16600Y21400D01*
Y28450D01*
X16700Y28550D01*
X17970D01*
X17980Y28500D01*
X17931Y28480D01*
X17840Y28410D01*
X17770Y28319D01*
X17727Y28213D01*
X17718Y28150D01*
X18150D01*
X18582D01*
X18573Y28213D01*
X18530Y28319D01*
X18460Y28410D01*
X18369Y28480D01*
X18320Y28500D01*
X18330Y28550D01*
X19300D01*
X20061Y29311D01*
X20986Y28386D01*
D02*
G37*
G36*
X28550Y25050D02*
Y25050D01*
X32900D01*
Y23950D01*
X32879Y23900D01*
X27415D01*
X27396Y23946D01*
X28515Y25065D01*
X28550Y25050D01*
D02*
G37*
%LPC*%
G36*
X23146Y45393D02*
X23077Y45384D01*
X22967Y45339D01*
X22872Y45266D01*
X22799Y45171D01*
X22753Y45060D01*
X22744Y44992D01*
X23146D01*
Y45393D01*
D02*
G37*
G36*
X33932Y45150D02*
X33550D01*
Y44768D01*
X33613Y44777D01*
X33719Y44820D01*
X33810Y44890D01*
X33880Y44981D01*
X33923Y45087D01*
X33932Y45150D01*
D02*
G37*
G36*
X33450D02*
X33068D01*
X33077Y45087D01*
X33120Y44981D01*
X33190Y44890D01*
X33281Y44820D01*
X33387Y44777D01*
X33450Y44768D01*
Y45150D01*
D02*
G37*
G36*
X23647Y44892D02*
X23246D01*
Y44490D01*
X23314Y44499D01*
X23425Y44545D01*
X23520Y44618D01*
X23593Y44713D01*
X23638Y44823D01*
X23647Y44892D01*
D02*
G37*
G36*
X23146D02*
X22744D01*
X22753Y44823D01*
X22799Y44713D01*
X22872Y44618D01*
X22967Y44545D01*
X23077Y44499D01*
X23146Y44490D01*
Y44892D01*
D02*
G37*
G36*
X27598Y42452D02*
Y42050D01*
X27999D01*
X27990Y42119D01*
X27945Y42229D01*
X27872Y42324D01*
X27777Y42397D01*
X27666Y42443D01*
X27598Y42452D01*
D02*
G37*
G36*
X27498D02*
X27429Y42443D01*
X27319Y42397D01*
X27224Y42324D01*
X27151Y42229D01*
X27105Y42119D01*
X27096Y42050D01*
X27498D01*
Y42452D01*
D02*
G37*
G36*
X18484Y45390D02*
Y44341D01*
X19533D01*
X19524Y44464D01*
X19483Y44632D01*
X19417Y44792D01*
X19327Y44940D01*
X19214Y45071D01*
X19082Y45184D01*
X18935Y45274D01*
X18775Y45340D01*
X18606Y45381D01*
X18484Y45390D01*
D02*
G37*
G36*
X18384D02*
X18261Y45381D01*
X18093Y45340D01*
X17933Y45274D01*
X17785Y45184D01*
X17654Y45071D01*
X17541Y44940D01*
X17451Y44792D01*
X17384Y44632D01*
X17344Y44464D01*
X17334Y44341D01*
X18384D01*
Y45390D01*
D02*
G37*
G36*
X19533Y44241D02*
X18484D01*
Y43191D01*
X18606Y43201D01*
X18775Y43242D01*
X18935Y43308D01*
X19082Y43398D01*
X19214Y43511D01*
X19327Y43642D01*
X19417Y43790D01*
X19483Y43950D01*
X19524Y44118D01*
X19533Y44241D01*
D02*
G37*
G36*
X18384D02*
X17334D01*
X17344Y44118D01*
X17384Y43950D01*
X17451Y43790D01*
X17541Y43642D01*
X17654Y43511D01*
X17785Y43398D01*
X17933Y43308D01*
X18093Y43242D01*
X18261Y43201D01*
X18384Y43191D01*
Y44241D01*
D02*
G37*
G36*
X21857Y38119D02*
X21416D01*
Y37677D01*
X21495Y37688D01*
X21615Y37737D01*
X21718Y37816D01*
X21797Y37920D01*
X21847Y38040D01*
X21857Y38119D01*
D02*
G37*
G36*
X21316D02*
X20874D01*
X20885Y38040D01*
X20935Y37920D01*
X21014Y37816D01*
X21117Y37737D01*
X21237Y37688D01*
X21316Y37677D01*
Y38119D01*
D02*
G37*
G36*
X18585Y36835D02*
X18200D01*
Y36450D01*
X18585D01*
Y36835D01*
D02*
G37*
G36*
Y36350D02*
X18200D01*
Y35965D01*
X18585D01*
Y36350D01*
D02*
G37*
G36*
X22400Y34723D02*
Y34281D01*
X22841D01*
X22831Y34360D01*
X22781Y34480D01*
X22702Y34584D01*
X22599Y34663D01*
X22479Y34713D01*
X22400Y34723D01*
D02*
G37*
G36*
X22300D02*
X22221Y34713D01*
X22101Y34663D01*
X21998Y34584D01*
X21919Y34480D01*
X21869Y34360D01*
X21859Y34281D01*
X22300D01*
Y34723D01*
D02*
G37*
G36*
X34935Y45635D02*
X34550D01*
Y45250D01*
X34935D01*
Y45635D01*
D02*
G37*
G36*
Y45150D02*
X34550D01*
Y44765D01*
X34935D01*
Y45150D01*
D02*
G37*
G36*
X39350Y45390D02*
Y44341D01*
X40399D01*
X40390Y44464D01*
X40349Y44632D01*
X40283Y44792D01*
X40193Y44940D01*
X40080Y45071D01*
X39949Y45184D01*
X39801Y45274D01*
X39641Y45340D01*
X39473Y45381D01*
X39350Y45390D01*
D02*
G37*
G36*
X39250D02*
X39127Y45381D01*
X38959Y45340D01*
X38799Y45274D01*
X38651Y45184D01*
X38520Y45071D01*
X38407Y44940D01*
X38317Y44792D01*
X38251Y44632D01*
X38210Y44464D01*
X38201Y44341D01*
X39250D01*
Y45390D01*
D02*
G37*
G36*
X40399Y44241D02*
X39350D01*
Y43191D01*
X39473Y43201D01*
X39641Y43242D01*
X39801Y43308D01*
X39949Y43398D01*
X40080Y43511D01*
X40193Y43642D01*
X40283Y43790D01*
X40349Y43950D01*
X40390Y44118D01*
X40399Y44241D01*
D02*
G37*
G36*
X39250D02*
X38201D01*
X38210Y44118D01*
X38251Y43950D01*
X38317Y43790D01*
X38407Y43642D01*
X38520Y43511D01*
X38651Y43398D01*
X38799Y43308D01*
X38959Y43242D01*
X39127Y43201D01*
X39250Y43191D01*
Y44241D01*
D02*
G37*
G36*
X39332Y32400D02*
X38900D01*
X38468D01*
X38477Y32337D01*
X38520Y32231D01*
X38590Y32140D01*
X38681Y32070D01*
X38696Y32064D01*
Y31836D01*
X38681Y31830D01*
X38590Y31760D01*
X38520Y31669D01*
X38477Y31563D01*
X38468Y31500D01*
X38900D01*
X39332D01*
X39323Y31563D01*
X39280Y31669D01*
X39210Y31760D01*
X39119Y31830D01*
X39104Y31836D01*
Y32064D01*
X39119Y32070D01*
X39210Y32140D01*
X39280Y32231D01*
X39323Y32337D01*
X39332Y32400D01*
D02*
G37*
G36*
Y31400D02*
X38900D01*
X38468D01*
X38477Y31337D01*
X38520Y31231D01*
X38590Y31140D01*
X38681Y31070D01*
X38696Y31064D01*
Y30836D01*
X38681Y30830D01*
X38590Y30760D01*
X38520Y30669D01*
X38477Y30563D01*
X38468Y30500D01*
X38900D01*
X39332D01*
X39323Y30563D01*
X39280Y30669D01*
X39210Y30760D01*
X39119Y30830D01*
X39104Y30836D01*
Y31064D01*
X39119Y31070D01*
X39210Y31140D01*
X39280Y31231D01*
X39323Y31337D01*
X39332Y31400D01*
D02*
G37*
G36*
Y30400D02*
X38900D01*
X38468D01*
X38477Y30337D01*
X38520Y30231D01*
X38590Y30140D01*
X38681Y30070D01*
X38696Y30064D01*
Y29836D01*
X38681Y29830D01*
X38590Y29760D01*
X38520Y29669D01*
X38477Y29563D01*
X38468Y29500D01*
X38900D01*
X39332D01*
X39323Y29563D01*
X39280Y29669D01*
X39210Y29760D01*
X39119Y29830D01*
X39104Y29836D01*
Y30064D01*
X39119Y30070D01*
X39210Y30140D01*
X39280Y30231D01*
X39323Y30337D01*
X39332Y30400D01*
D02*
G37*
G36*
Y29400D02*
X38900D01*
X38468D01*
X38477Y29337D01*
X38520Y29231D01*
X38590Y29140D01*
X38681Y29070D01*
X38696Y29064D01*
Y28885D01*
X38465D01*
Y28500D01*
X38900D01*
X39335D01*
Y28885D01*
X39104D01*
Y29064D01*
X39119Y29070D01*
X39210Y29140D01*
X39280Y29231D01*
X39323Y29337D01*
X39332Y29400D01*
D02*
G37*
G36*
X33600Y32452D02*
X33531Y32443D01*
X33421Y32397D01*
X33326Y32324D01*
X33253Y32229D01*
X33207Y32119D01*
X33198Y32050D01*
X33600D01*
Y32452D01*
D02*
G37*
G36*
Y31950D02*
X33198D01*
X33207Y31881D01*
X33253Y31771D01*
X33326Y31676D01*
X33421Y31603D01*
X33531Y31557D01*
X33600Y31548D01*
Y31950D01*
D02*
G37*
G36*
X37750Y32400D02*
X37368D01*
X37377Y32337D01*
X37420Y32231D01*
X37490Y32140D01*
X37581Y32070D01*
X37687Y32027D01*
X37750Y32018D01*
Y32400D01*
D02*
G37*
G36*
Y31882D02*
X37687Y31873D01*
X37581Y31830D01*
X37490Y31760D01*
X37420Y31669D01*
X37377Y31563D01*
X37368Y31500D01*
X37750D01*
Y31882D01*
D02*
G37*
G36*
Y31400D02*
X37368D01*
X37377Y31337D01*
X37420Y31231D01*
X37490Y31140D01*
X37581Y31070D01*
X37687Y31027D01*
X37750Y31018D01*
Y31400D01*
D02*
G37*
G36*
Y30882D02*
X37687Y30873D01*
X37581Y30830D01*
X37490Y30760D01*
X37420Y30669D01*
X37377Y30563D01*
X37368Y30500D01*
X37750D01*
Y30882D01*
D02*
G37*
G36*
Y30400D02*
X37368D01*
X37377Y30337D01*
X37420Y30231D01*
X37490Y30140D01*
X37581Y30070D01*
X37687Y30027D01*
X37750Y30018D01*
Y30400D01*
D02*
G37*
G36*
Y29882D02*
X37687Y29873D01*
X37581Y29830D01*
X37490Y29760D01*
X37420Y29669D01*
X37377Y29563D01*
X37368Y29500D01*
X37750D01*
Y29882D01*
D02*
G37*
G36*
Y29400D02*
X37368D01*
X37377Y29337D01*
X37420Y29231D01*
X37490Y29140D01*
X37581Y29070D01*
X37687Y29027D01*
X37750Y29018D01*
Y29400D01*
D02*
G37*
G36*
Y28885D02*
X37365D01*
Y28500D01*
X37750D01*
Y28885D01*
D02*
G37*
G36*
X39350Y22949D02*
Y21900D01*
X40399D01*
X40390Y22023D01*
X40349Y22191D01*
X40283Y22351D01*
X40193Y22499D01*
X40080Y22630D01*
X39949Y22743D01*
X39801Y22833D01*
X39641Y22899D01*
X39473Y22940D01*
X39350Y22949D01*
D02*
G37*
G36*
X39250D02*
X39127Y22940D01*
X38959Y22899D01*
X38799Y22833D01*
X38651Y22743D01*
X38520Y22630D01*
X38407Y22499D01*
X38317Y22351D01*
X38251Y22191D01*
X38210Y22023D01*
X38201Y21900D01*
X39250D01*
Y22949D01*
D02*
G37*
G36*
X36031Y21316D02*
Y20969D01*
X36378D01*
X36371Y21023D01*
X36330Y21121D01*
X36266Y21204D01*
X36183Y21268D01*
X36086Y21309D01*
X36031Y21316D01*
D02*
G37*
G36*
X35931D02*
X35877Y21309D01*
X35779Y21268D01*
X35696Y21204D01*
X35632Y21121D01*
X35591Y21023D01*
X35584Y20969D01*
X35931D01*
Y21316D01*
D02*
G37*
G36*
X33669D02*
Y20969D01*
X34016D01*
X34009Y21023D01*
X33968Y21121D01*
X33904Y21204D01*
X33821Y21268D01*
X33723Y21309D01*
X33669Y21316D01*
D02*
G37*
G36*
X33569D02*
X33514Y21309D01*
X33417Y21268D01*
X33334Y21204D01*
X33270Y21121D01*
X33229Y21023D01*
X33222Y20969D01*
X33569D01*
Y21316D01*
D02*
G37*
G36*
X31731D02*
Y20969D01*
X32078D01*
X32071Y21023D01*
X32030Y21121D01*
X31966Y21204D01*
X31883Y21268D01*
X31786Y21309D01*
X31731Y21316D01*
D02*
G37*
G36*
X31631D02*
X31577Y21309D01*
X31479Y21268D01*
X31396Y21204D01*
X31332Y21121D01*
X31291Y21023D01*
X31284Y20969D01*
X31631D01*
Y21316D01*
D02*
G37*
G36*
X29369D02*
Y20969D01*
X29716D01*
X29709Y21023D01*
X29668Y21121D01*
X29604Y21204D01*
X29521Y21268D01*
X29423Y21309D01*
X29369Y21316D01*
D02*
G37*
G36*
X29269D02*
X29214Y21309D01*
X29117Y21268D01*
X29034Y21204D01*
X28970Y21121D01*
X28929Y21023D01*
X28922Y20969D01*
X29269D01*
Y21316D01*
D02*
G37*
G36*
X40399Y21800D02*
X39350D01*
Y20751D01*
X39473Y20760D01*
X39641Y20801D01*
X39801Y20867D01*
X39949Y20957D01*
X40080Y21070D01*
X40193Y21201D01*
X40283Y21349D01*
X40349Y21509D01*
X40390Y21677D01*
X40399Y21800D01*
D02*
G37*
G36*
X39250D02*
X38201D01*
X38210Y21677D01*
X38251Y21509D01*
X38317Y21349D01*
X38407Y21201D01*
X38520Y21070D01*
X38651Y20957D01*
X38799Y20867D01*
X38959Y20801D01*
X39127Y20760D01*
X39250Y20751D01*
Y21800D01*
D02*
G37*
G36*
X36378Y20869D02*
X36031D01*
Y20522D01*
X36086Y20529D01*
X36183Y20570D01*
X36266Y20634D01*
X36330Y20717D01*
X36371Y20814D01*
X36378Y20869D01*
D02*
G37*
G36*
X35931D02*
X35584D01*
X35591Y20814D01*
X35632Y20717D01*
X35696Y20634D01*
X35779Y20570D01*
X35877Y20529D01*
X35931Y20522D01*
Y20869D01*
D02*
G37*
G36*
X34016D02*
X33669D01*
Y20522D01*
X33723Y20529D01*
X33821Y20570D01*
X33904Y20634D01*
X33968Y20717D01*
X34009Y20814D01*
X34016Y20869D01*
D02*
G37*
G36*
X33569D02*
X33222D01*
X33229Y20814D01*
X33270Y20717D01*
X33334Y20634D01*
X33417Y20570D01*
X33514Y20529D01*
X33569Y20522D01*
Y20869D01*
D02*
G37*
G36*
X32078D02*
X31731D01*
Y20522D01*
X31786Y20529D01*
X31883Y20570D01*
X31966Y20634D01*
X32030Y20717D01*
X32071Y20814D01*
X32078Y20869D01*
D02*
G37*
G36*
X31631D02*
X31284D01*
X31291Y20814D01*
X31332Y20717D01*
X31396Y20634D01*
X31479Y20570D01*
X31577Y20529D01*
X31631Y20522D01*
Y20869D01*
D02*
G37*
G36*
X29716D02*
X29369D01*
Y20522D01*
X29423Y20529D01*
X29521Y20570D01*
X29604Y20634D01*
X29668Y20717D01*
X29709Y20814D01*
X29716Y20869D01*
D02*
G37*
G36*
X29269D02*
X28922D01*
X28929Y20814D01*
X28970Y20717D01*
X29034Y20634D01*
X29117Y20570D01*
X29214Y20529D01*
X29269Y20522D01*
Y20869D01*
D02*
G37*
G36*
X22635Y30650D02*
X22250D01*
Y30265D01*
X22635D01*
Y30650D01*
D02*
G37*
G36*
X22150D02*
X21765D01*
Y30265D01*
X22150D01*
Y30650D01*
D02*
G37*
G36*
X21659Y27900D02*
X21294D01*
Y27535D01*
X21659D01*
Y27900D01*
D02*
G37*
G36*
X29750Y27112D02*
X29692Y27104D01*
X29591Y27062D01*
X29504Y26996D01*
X29438Y26909D01*
X29396Y26808D01*
X29388Y26750D01*
X29750D01*
Y27112D01*
D02*
G37*
G36*
X18582Y28050D02*
X18200D01*
Y27668D01*
X18263Y27677D01*
X18369Y27720D01*
X18460Y27790D01*
X18530Y27881D01*
X18573Y27987D01*
X18582Y28050D01*
D02*
G37*
G36*
X18100D02*
X17718D01*
X17727Y27987D01*
X17770Y27881D01*
X17840Y27790D01*
X17931Y27720D01*
X18037Y27677D01*
X18100Y27668D01*
Y28050D01*
D02*
G37*
G36*
X18585Y27535D02*
X18200D01*
Y27150D01*
X18585D01*
Y27535D01*
D02*
G37*
G36*
X18100D02*
X17715D01*
Y27150D01*
X18100D01*
Y27535D01*
D02*
G37*
G36*
X18585Y27050D02*
X18200D01*
Y26665D01*
X18585D01*
Y27050D01*
D02*
G37*
G36*
X18100D02*
X17715D01*
Y26665D01*
X18100D01*
Y27050D01*
D02*
G37*
G36*
X18484Y22949D02*
Y21900D01*
X19533D01*
X19524Y22023D01*
X19483Y22191D01*
X19417Y22351D01*
X19327Y22499D01*
X19214Y22630D01*
X19082Y22743D01*
X18935Y22833D01*
X18775Y22899D01*
X18606Y22940D01*
X18484Y22949D01*
D02*
G37*
G36*
X18384D02*
X18261Y22940D01*
X18093Y22899D01*
X17933Y22833D01*
X17785Y22743D01*
X17654Y22630D01*
X17541Y22499D01*
X17451Y22351D01*
X17384Y22191D01*
X17344Y22023D01*
X17334Y21900D01*
X18384D01*
Y22949D01*
D02*
G37*
G36*
X19533Y21800D02*
X18484D01*
Y20751D01*
X18606Y20760D01*
X18775Y20801D01*
X18935Y20867D01*
X19082Y20957D01*
X19214Y21070D01*
X19327Y21201D01*
X19417Y21349D01*
X19483Y21509D01*
X19524Y21677D01*
X19533Y21800D01*
D02*
G37*
G36*
X18384D02*
X17334D01*
X17344Y21677D01*
X17384Y21509D01*
X17451Y21349D01*
X17541Y21201D01*
X17654Y21070D01*
X17785Y20957D01*
X17933Y20867D01*
X18093Y20801D01*
X18261Y20760D01*
X18384Y20751D01*
Y21800D01*
D02*
G37*
%LPD*%
D15*
X31548Y38500D02*
X32548Y37500D01*
X28048Y38500D02*
X31548D01*
X27548Y39000D02*
X28048Y38500D01*
X20800Y33500D02*
X22550D01*
X26550Y37350D02*
X26750Y37550D01*
X27726D01*
X28376Y38200D01*
X27548Y38000D02*
X27898Y38350D01*
X31500D01*
X28376Y38200D02*
X31400D01*
X31448Y38152D02*
X31500D01*
X31400Y38200D02*
X31448Y38152D01*
X31500D02*
X33650Y36002D01*
Y36000D02*
Y36002D01*
X31650Y38600D02*
Y41500D01*
Y38600D02*
X32350Y37900D01*
X33550D02*
X33650Y38000D01*
X32350Y37900D02*
X33550D01*
X34000Y37500D02*
X34275Y37775D01*
X32548Y37500D02*
X34000D01*
X34275Y37775D02*
X36575D01*
X31500Y38350D02*
X33300Y36550D01*
X34950Y36925D02*
X36225D01*
X34575Y36550D02*
X34950Y36925D01*
X33300Y36550D02*
X34575D01*
X36225Y36925D02*
X37211Y35940D01*
X25032Y39475D02*
X25057Y39500D01*
X24575Y39475D02*
X25032D01*
X24550Y39450D02*
X24575Y39475D01*
X25650Y40450D02*
X25950Y40150D01*
Y39874D02*
Y40150D01*
X31590Y33690D02*
X33450Y35550D01*
X27858Y33690D02*
X31590D01*
X27548Y34000D02*
X27858Y33690D01*
X33450Y35550D02*
X34228D01*
X36575Y37775D02*
X37491Y36859D01*
X39500D01*
X34228Y35550D02*
X34478Y35800D01*
X38559D01*
X39419Y35940D02*
X39500Y35859D01*
X37211Y35940D02*
X39419D01*
X38559Y35800D02*
X39500Y34859D01*
X39491Y35850D02*
X39500Y35859D01*
X34835Y33985D02*
X36200Y35350D01*
X34835Y30185D02*
Y33985D01*
X33650Y29000D02*
X34835Y30185D01*
X25450Y30494D02*
Y31800D01*
X25547Y31897D01*
X22891Y27950D02*
X22906D01*
X25450Y30494D01*
Y31994D02*
X25547Y31897D01*
X27444D02*
X27548Y32000D01*
X25547Y31897D02*
X27444D01*
X25450Y31994D02*
Y32476D01*
X24410Y33516D02*
X25450Y32476D01*
X24890Y33260D02*
X25785Y32365D01*
X24550Y33574D02*
X24864Y33260D01*
X24550Y33574D02*
Y34723D01*
X24864Y33260D02*
X24890D01*
X25785Y32200D02*
Y32365D01*
X24410Y33516D02*
Y35310D01*
X25102Y36002D02*
Y37100D01*
X24410Y35310D02*
X25102Y36002D01*
X25651Y32950D02*
X26525D01*
X27125Y33550D01*
X25102Y37100D02*
Y37175D01*
X24957Y37320D02*
X25102Y37175D01*
X24183Y37320D02*
X24957D01*
X23334Y38168D02*
X24183Y37320D01*
X26604Y31500D02*
X27915D01*
X28750Y32335D01*
X34250Y33700D02*
Y34300D01*
X34000Y34550D02*
X34250Y34300D01*
X32650Y34550D02*
X34000D01*
X31650Y33550D02*
X32650Y34550D01*
X27125Y33550D02*
X31650D01*
X25102Y35275D02*
Y35350D01*
X24550Y34723D02*
X25102Y35275D01*
X33650Y33000D02*
Y33100D01*
X34250Y33700D01*
X25076Y33525D02*
Y33600D01*
Y33525D02*
X25651Y32950D01*
X25785Y30700D02*
X25804D01*
X26604Y31500D01*
X28750Y32335D02*
X31133D01*
X31798Y33000D02*
X33650D01*
X31133Y32335D02*
X31798Y33000D01*
X25785Y32200D02*
X27119D01*
X27394Y32475D01*
X31075D01*
X32600Y34000D02*
X33650D01*
X31075Y32475D02*
X32600Y34000D01*
X31681Y23281D02*
X31731D01*
D16*
X25115Y32200D02*
D03*
X25785D02*
D03*
X25785Y30700D02*
D03*
X25115D02*
D03*
D17*
X25057Y39500D02*
D03*
X25950Y39874D02*
D03*
Y39126D02*
D03*
D18*
X25850Y37100D02*
D03*
X25102D02*
D03*
X25850Y35350D02*
D03*
X25102D02*
D03*
X25824Y33600D02*
D03*
X25076D02*
D03*
D34*
X25950Y37275D02*
Y39126D01*
X25850Y37175D02*
X25950Y37275D01*
X25850Y37100D02*
Y37175D01*
X25096Y32200D02*
X25115D01*
X24172Y33123D02*
X25096Y32200D01*
X25115Y30700D02*
X25115Y30700D01*
X25115Y30700D02*
Y32200D01*
X25115Y32200D02*
X25115Y32200D01*
X24459Y30700D02*
X25115D01*
X21709Y27950D02*
X24459Y30700D01*
X32570Y27470D02*
X36116D01*
X30850Y27750D02*
X36000D01*
X30850Y28050D02*
X35904D01*
X31800Y26700D02*
X32570Y27470D01*
X37305Y27955D02*
X37800Y28450D01*
X36601Y27955D02*
X37305D01*
X36116Y27470D02*
X36601Y27955D01*
X38900Y28450D02*
Y29450D01*
Y30450D01*
Y31450D01*
Y32450D01*
X38400Y32950D02*
X38900Y32450D01*
X36500Y32950D02*
X38400D01*
X36077Y28223D02*
Y32527D01*
X36500Y32950D01*
X35904Y28050D02*
X36077Y28223D01*
X27548Y30000D02*
X28900D01*
X30850Y28050D01*
X36000Y27750D02*
X36700Y28450D01*
X29800Y26700D02*
X30850Y27750D01*
X32950Y45750D02*
X33500Y45200D01*
X28000Y45750D02*
X32950D01*
X27450Y45200D02*
X28000Y45750D01*
X23196Y44942D02*
X24004Y45750D01*
X26900D01*
X27450Y45200D01*
X27499Y43049D02*
X27548Y43000D01*
X27499Y43049D02*
Y45151D01*
X27450Y45200D02*
X27499Y45151D01*
X27400Y43000D02*
X27548D01*
X24100Y39700D02*
X27400Y43000D01*
X20250Y39700D02*
X24100D01*
X18150Y37600D02*
X20250Y39700D01*
X18150Y37400D02*
Y37600D01*
X20531Y33123D02*
X24172D01*
X17450Y36204D02*
X20531Y33123D01*
X17450Y36204D02*
Y36700D01*
X18150Y37400D01*
X18649Y31010D02*
X21709Y27950D01*
X18240Y31010D02*
X18649D01*
X18150Y31100D02*
X18240Y31010D01*
X21709Y27950D02*
X26177Y23483D01*
X26550D01*
X36700Y31450D02*
Y32450D01*
Y30450D02*
Y31450D01*
Y29450D02*
Y30450D01*
Y28450D02*
Y29450D01*
X26550Y22217D02*
Y23483D01*
X29767Y26700D02*
X29800D01*
X26550Y23483D02*
X29767Y26700D01*
X26550Y22217D02*
X27681Y21086D01*
X21663Y23700D02*
X24276Y21086D01*
X25319D01*
X26350Y40802D02*
X27548Y42000D01*
X26350Y39441D02*
Y40802D01*
X26035Y39126D02*
X26350Y39441D01*
X25950Y39126D02*
X26035D01*
X25850Y35350D02*
X25850Y35350D01*
X25850Y33550D02*
Y35350D01*
X25850Y33550D02*
X25850Y33550D01*
X25850Y35350D02*
Y37100D01*
D35*
X18100Y27050D02*
X18150Y27100D01*
X18434Y21850D02*
X18450Y21866D01*
D36*
X33650Y29000D02*
D03*
Y30000D02*
D03*
Y31000D02*
D03*
Y32000D02*
D03*
Y33000D02*
D03*
Y34000D02*
D03*
Y35000D02*
D03*
Y36000D02*
D03*
Y37000D02*
D03*
Y38000D02*
D03*
Y39000D02*
D03*
Y40000D02*
D03*
Y41000D02*
D03*
Y42000D02*
D03*
Y43000D02*
D03*
X27548Y29000D02*
D03*
Y30000D02*
D03*
Y31000D02*
D03*
Y32000D02*
D03*
Y33000D02*
D03*
Y34000D02*
D03*
Y35000D02*
D03*
Y36000D02*
D03*
Y37000D02*
D03*
Y38000D02*
D03*
Y39000D02*
D03*
Y40000D02*
D03*
Y41000D02*
D03*
Y42000D02*
D03*
Y43000D02*
D03*
X23196Y44942D02*
D03*
D37*
X39300Y44291D02*
D03*
X18434Y21850D02*
D03*
X39300D02*
D03*
X18434Y44291D02*
D03*
D38*
X29319Y20919D02*
D03*
X31681D02*
D03*
X29319Y23281D02*
D03*
X31681D02*
D03*
X33619Y20919D02*
D03*
X35981D02*
D03*
X33619Y23281D02*
D03*
X35981D02*
D03*
D39*
X23334Y38168D02*
D03*
X22350Y34232D02*
D03*
X21366Y38168D02*
D03*
D40*
X23196Y41950D02*
D03*
D41*
X36580Y41200D02*
D03*
Y42200D02*
D03*
Y43200D02*
D03*
X36200Y38350D02*
D03*
Y37350D02*
D03*
Y36350D02*
D03*
X38900Y32450D02*
D03*
Y31450D02*
D03*
Y30450D02*
D03*
Y29450D02*
D03*
X37800Y32450D02*
D03*
Y31450D02*
D03*
Y30450D02*
D03*
Y29450D02*
D03*
X36700Y32450D02*
D03*
Y31450D02*
D03*
Y30450D02*
D03*
Y29450D02*
D03*
X32500Y45200D02*
D03*
X33500D02*
D03*
X26450Y45200D02*
D03*
X27450D02*
D03*
X27681Y23055D02*
D03*
Y22070D02*
D03*
X25319Y23055D02*
D03*
Y22070D02*
D03*
Y21086D02*
D03*
X39500Y36859D02*
D03*
Y35859D02*
D03*
X18150Y28100D02*
D03*
Y29100D02*
D03*
Y30100D02*
D03*
Y31100D02*
D03*
Y37400D02*
D03*
Y38400D02*
D03*
Y39400D02*
D03*
X22350Y31700D02*
D03*
D42*
X36580Y44200D02*
D03*
X36200Y35350D02*
D03*
X34500Y45200D02*
D03*
X28450Y45200D02*
D03*
X27681Y21086D02*
D03*
X18150Y27100D02*
D03*
Y36400D02*
D03*
X22350Y30700D02*
D03*
D43*
X38900Y28450D02*
D03*
X37800D02*
D03*
X36700D02*
D03*
X39500Y34859D02*
D03*
D44*
X31800Y26700D02*
D03*
Y25700D02*
D03*
X30800Y26700D02*
D03*
Y25700D02*
D03*
X29800Y26700D02*
D03*
X22891Y27950D02*
D03*
D45*
X29800Y25700D02*
D03*
X21709Y27950D02*
D03*
D46*
X21600Y23800D02*
D03*
D47*
X23159D02*
D03*
D48*
X22550Y33500D02*
D03*
X20800D02*
D03*
X26550Y37350D02*
D03*
X31650Y41500D02*
D03*
X24550Y39450D02*
D03*
X25650Y40450D02*
D03*
M02*
