G04*
G04 #@! TF.GenerationSoftware,Altium Limited,Altium Designer,20.0.2 (26)*
G04*
G04 Layer_Color=128*
%FSLAX24Y24*%
%MOIN*%
G70*
G01*
G75*
%ADD49C,0.0020*%
D49*
X33493Y29000D02*
X33807D01*
X33650Y28843D02*
Y29157D01*
X33493Y30000D02*
X33807D01*
X33650Y29843D02*
Y30157D01*
X33493Y31000D02*
X33807D01*
X33650Y30843D02*
Y31157D01*
X33493Y32000D02*
X33807D01*
X33650Y31843D02*
Y32157D01*
X33493Y33000D02*
X33807D01*
X33650Y32843D02*
Y33157D01*
X33493Y34000D02*
X33807D01*
X33650Y33843D02*
Y34157D01*
X33493Y35000D02*
X33807D01*
X33650Y34843D02*
Y35157D01*
X33493Y36000D02*
X33807D01*
X33650Y35843D02*
Y36157D01*
X33493Y37000D02*
X33807D01*
X33650Y36843D02*
Y37157D01*
X33493Y38000D02*
X33807D01*
X33650Y37843D02*
Y38157D01*
X33493Y39000D02*
X33807D01*
X33650Y38843D02*
Y39157D01*
X33493Y40000D02*
X33807D01*
X33650Y39843D02*
Y40157D01*
X33493Y41000D02*
X33807D01*
X33650Y40843D02*
Y41157D01*
X33493Y42000D02*
X33807D01*
X33650Y41843D02*
Y42157D01*
X33493Y43000D02*
X33807D01*
X33650Y42843D02*
Y43157D01*
X27390Y29000D02*
X27705D01*
X27548Y28843D02*
Y29157D01*
X27390Y30000D02*
X27705D01*
X27548Y29843D02*
Y30157D01*
X27390Y31000D02*
X27705D01*
X27548Y30843D02*
Y31157D01*
X27390Y32000D02*
X27705D01*
X27548Y31843D02*
Y32157D01*
X27390Y33000D02*
X27705D01*
X27548Y32843D02*
Y33157D01*
X27390Y34000D02*
X27705D01*
X27548Y33843D02*
Y34157D01*
X27390Y35000D02*
X27705D01*
X27548Y34843D02*
Y35157D01*
X27390Y36000D02*
X27705D01*
X27548Y35843D02*
Y36157D01*
X27390Y37000D02*
X27705D01*
X27548Y36843D02*
Y37157D01*
X27390Y38000D02*
X27705D01*
X27548Y37843D02*
Y38157D01*
X27390Y39000D02*
X27705D01*
X27548Y38843D02*
Y39157D01*
X27390Y40000D02*
X27705D01*
X27548Y39843D02*
Y40157D01*
X27390Y41000D02*
X27705D01*
X27548Y40843D02*
Y41157D01*
X27390Y42000D02*
X27705D01*
X27548Y41843D02*
Y42157D01*
X27390Y43000D02*
X27705D01*
X27548Y42843D02*
Y43157D01*
X38675Y44291D02*
X39925D01*
X39300Y43666D02*
Y44916D01*
X17809Y21850D02*
X19059D01*
X18434Y21225D02*
Y22475D01*
X38675Y21850D02*
X39925D01*
X39300Y21225D02*
Y22475D01*
X17809Y44291D02*
X19059D01*
X18434Y43666D02*
Y44916D01*
X29169Y20919D02*
X29469D01*
X29319Y20769D02*
Y21069D01*
X31531Y20919D02*
X31831D01*
X31681Y20769D02*
Y21069D01*
X29169Y23281D02*
X29469D01*
X29319Y23131D02*
Y23431D01*
X31531Y23281D02*
X31831D01*
X31681Y23131D02*
Y23431D01*
X33469Y20919D02*
X33769D01*
X33619Y20769D02*
Y21069D01*
X35831Y20919D02*
X36131D01*
X35981Y20769D02*
Y21069D01*
X33469Y23281D02*
X33769D01*
X33619Y23131D02*
Y23431D01*
X35831Y23281D02*
X36131D01*
X35981Y23131D02*
Y23431D01*
X23098Y38168D02*
X23570D01*
X23334Y37932D02*
Y38405D01*
X22114Y34232D02*
X22586D01*
X22350Y33995D02*
Y34468D01*
X21130Y38168D02*
X21602D01*
X21366Y37932D02*
Y38405D01*
X23019Y41950D02*
X23373D01*
X23196Y41773D02*
Y42127D01*
X23019Y44942D02*
X23373D01*
X23196Y44765D02*
Y45119D01*
X36403Y41200D02*
X36757D01*
X36580Y41023D02*
Y41377D01*
X36403Y42200D02*
X36757D01*
X36580Y42023D02*
Y42377D01*
X36403Y43200D02*
X36757D01*
X36580Y43023D02*
Y43377D01*
X36403Y44200D02*
X36757D01*
X36580Y44023D02*
Y44377D01*
X36023Y38350D02*
X36377D01*
X36200Y38173D02*
Y38527D01*
X36023Y37350D02*
X36377D01*
X36200Y37173D02*
Y37527D01*
X36023Y36350D02*
X36377D01*
X36200Y36173D02*
Y36527D01*
X36023Y35350D02*
X36377D01*
X36200Y35173D02*
Y35527D01*
X38723Y32450D02*
X39077D01*
X38900Y32273D02*
Y32627D01*
X38723Y31450D02*
X39077D01*
X38900Y31273D02*
Y31627D01*
X38723Y30450D02*
X39077D01*
X38900Y30273D02*
Y30627D01*
X38723Y29450D02*
X39077D01*
X38900Y29273D02*
Y29627D01*
X38723Y28450D02*
X39077D01*
X38900Y28273D02*
Y28627D01*
X37623Y32450D02*
X37977D01*
X37800Y32273D02*
Y32627D01*
X37623Y31450D02*
X37977D01*
X37800Y31273D02*
Y31627D01*
X37623Y30450D02*
X37977D01*
X37800Y30273D02*
Y30627D01*
X37623Y29450D02*
X37977D01*
X37800Y29273D02*
Y29627D01*
X37623Y28450D02*
X37977D01*
X37800Y28273D02*
Y28627D01*
X36523Y32450D02*
X36877D01*
X36700Y32273D02*
Y32627D01*
X36523Y31450D02*
X36877D01*
X36700Y31273D02*
Y31627D01*
X36523Y30450D02*
X36877D01*
X36700Y30273D02*
Y30627D01*
X36523Y29450D02*
X36877D01*
X36700Y29273D02*
Y29627D01*
X36523Y28450D02*
X36877D01*
X36700Y28273D02*
Y28627D01*
X32323Y45200D02*
X32677D01*
X32500Y45023D02*
Y45377D01*
X33323Y45200D02*
X33677D01*
X33500Y45023D02*
Y45377D01*
X34323Y45200D02*
X34677D01*
X34500Y45023D02*
Y45377D01*
X26273Y45200D02*
X26627D01*
X26450Y45023D02*
Y45377D01*
X27273Y45200D02*
X27627D01*
X27450Y45023D02*
Y45377D01*
X28273Y45200D02*
X28627D01*
X28450Y45023D02*
Y45377D01*
X31623Y26700D02*
X31977D01*
X31800Y26523D02*
Y26877D01*
X31623Y25700D02*
X31977D01*
X31800Y25523D02*
Y25877D01*
X30623Y26700D02*
X30977D01*
X30800Y26523D02*
Y26877D01*
X30623Y25700D02*
X30977D01*
X30800Y25523D02*
Y25877D01*
X29623Y26700D02*
X29977D01*
X29800Y26523D02*
Y26877D01*
X29623Y25700D02*
X29977D01*
X29800Y25523D02*
Y25877D01*
X27504Y23055D02*
X27858D01*
X27681Y22878D02*
Y23232D01*
X27504Y22070D02*
X27858D01*
X27681Y21893D02*
Y22248D01*
X27504Y21086D02*
X27858D01*
X27681Y20909D02*
Y21263D01*
X25142Y23055D02*
X25496D01*
X25319Y22878D02*
Y23232D01*
X25142Y22070D02*
X25496D01*
X25319Y21893D02*
Y22248D01*
X25142Y21086D02*
X25496D01*
X25319Y20909D02*
Y21263D01*
X39323Y36859D02*
X39677D01*
X39500Y36682D02*
Y37037D01*
X39323Y35859D02*
X39677D01*
X39500Y35682D02*
Y36037D01*
X39323Y34859D02*
X39677D01*
X39500Y34682D02*
Y35037D01*
X17973Y27100D02*
X18327D01*
X18150Y26923D02*
Y27277D01*
X17973Y28100D02*
X18327D01*
X18150Y27923D02*
Y28277D01*
X17973Y29100D02*
X18327D01*
X18150Y28923D02*
Y29277D01*
X17973Y30100D02*
X18327D01*
X18150Y29923D02*
Y30277D01*
X17973Y31100D02*
X18327D01*
X18150Y30923D02*
Y31277D01*
X17973Y36400D02*
X18327D01*
X18150Y36223D02*
Y36577D01*
X17973Y37400D02*
X18327D01*
X18150Y37223D02*
Y37577D01*
X17973Y38400D02*
X18327D01*
X18150Y38223D02*
Y38577D01*
X17973Y39400D02*
X18327D01*
X18150Y39223D02*
Y39577D01*
X21344Y23800D02*
X21856D01*
X21600Y23544D02*
Y24056D01*
X22903Y23800D02*
X23415D01*
X23159Y23544D02*
Y24056D01*
X22173Y30700D02*
X22527D01*
X22350Y30523D02*
Y30877D01*
X22173Y31700D02*
X22527D01*
X22350Y31523D02*
Y31877D01*
X21552Y27950D02*
X21867D01*
X21709Y27793D02*
Y28107D01*
X22733Y27950D02*
X23048D01*
X22891Y27793D02*
Y28107D01*
X22490Y33500D02*
X22610D01*
X22550Y33440D02*
Y33560D01*
X20740Y33500D02*
X20860D01*
X20800Y33440D02*
Y33560D01*
X26490Y37350D02*
X26610D01*
X26550Y37290D02*
Y37410D01*
X31590Y41500D02*
X31710D01*
X31650Y41440D02*
Y41560D01*
X24490Y39450D02*
X24610D01*
X24550Y39390D02*
Y39510D01*
X25590Y40450D02*
X25710D01*
X25650Y40390D02*
Y40510D01*
M02*
