G04*
G04 #@! TF.GenerationSoftware,Altium Limited,Altium Designer,20.0.2 (26)*
G04*
G04 Layer_Color=8388736*
%FSLAX24Y24*%
%MOIN*%
G70*
G01*
G75*
%ADD19R,0.0513X0.0474*%
%ADD20R,0.0474X0.0257*%
%ADD21R,0.0430X0.0580*%
%ADD22C,0.0789*%
%ADD23C,0.2080*%
%ADD24C,0.0680*%
%ADD25C,0.0867*%
%ADD26R,0.0789X0.0789*%
%ADD27C,0.0749*%
%ADD28R,0.0749X0.0749*%
%ADD29R,0.0749X0.0749*%
%ADD30C,0.0710*%
%ADD31R,0.0710X0.0710*%
%ADD32R,0.1025X0.1025*%
%ADD33C,0.1025*%
D19*
X25115Y32200D02*
D03*
X25785D02*
D03*
X25785Y30700D02*
D03*
X25115D02*
D03*
D20*
X25057Y39500D02*
D03*
X25950Y39874D02*
D03*
Y39126D02*
D03*
D21*
X25850Y37100D02*
D03*
X25102D02*
D03*
X25850Y35350D02*
D03*
X25102D02*
D03*
X25824Y33600D02*
D03*
X25076D02*
D03*
D22*
X33650Y29000D02*
D03*
Y30000D02*
D03*
Y31000D02*
D03*
Y32000D02*
D03*
Y33000D02*
D03*
Y34000D02*
D03*
Y35000D02*
D03*
Y36000D02*
D03*
Y37000D02*
D03*
Y38000D02*
D03*
Y39000D02*
D03*
Y40000D02*
D03*
Y41000D02*
D03*
Y42000D02*
D03*
Y43000D02*
D03*
X27548Y29000D02*
D03*
Y30000D02*
D03*
Y31000D02*
D03*
Y32000D02*
D03*
Y33000D02*
D03*
Y34000D02*
D03*
Y35000D02*
D03*
Y36000D02*
D03*
Y37000D02*
D03*
Y38000D02*
D03*
Y39000D02*
D03*
Y40000D02*
D03*
Y41000D02*
D03*
Y42000D02*
D03*
Y43000D02*
D03*
X23196Y44942D02*
D03*
D23*
X39300Y44291D02*
D03*
X18434Y21850D02*
D03*
X39300D02*
D03*
X18434Y44291D02*
D03*
D24*
X29319Y20919D02*
D03*
X31681D02*
D03*
X29319Y23281D02*
D03*
X31681D02*
D03*
X33619Y20919D02*
D03*
X35981D02*
D03*
X33619Y23281D02*
D03*
X35981D02*
D03*
D25*
X23334Y38168D02*
D03*
X22350Y34232D02*
D03*
X21366Y38168D02*
D03*
D26*
X23196Y41950D02*
D03*
D27*
X36580Y41200D02*
D03*
Y42200D02*
D03*
Y43200D02*
D03*
X36200Y38350D02*
D03*
Y37350D02*
D03*
Y36350D02*
D03*
X38900Y32450D02*
D03*
Y31450D02*
D03*
Y30450D02*
D03*
Y29450D02*
D03*
X37800Y32450D02*
D03*
Y31450D02*
D03*
Y30450D02*
D03*
Y29450D02*
D03*
X36700Y32450D02*
D03*
Y31450D02*
D03*
Y30450D02*
D03*
Y29450D02*
D03*
X32500Y45200D02*
D03*
X33500D02*
D03*
X26450Y45200D02*
D03*
X27450D02*
D03*
X27681Y23055D02*
D03*
Y22070D02*
D03*
X25319Y23055D02*
D03*
Y22070D02*
D03*
Y21086D02*
D03*
X39500Y36859D02*
D03*
Y35859D02*
D03*
X18150Y28100D02*
D03*
Y29100D02*
D03*
Y30100D02*
D03*
Y31100D02*
D03*
Y37400D02*
D03*
Y38400D02*
D03*
Y39400D02*
D03*
X22350Y31700D02*
D03*
D28*
X36580Y44200D02*
D03*
X36200Y35350D02*
D03*
X34500Y45200D02*
D03*
X28450Y45200D02*
D03*
X27681Y21086D02*
D03*
X18150Y27100D02*
D03*
Y36400D02*
D03*
X22350Y30700D02*
D03*
D29*
X38900Y28450D02*
D03*
X37800D02*
D03*
X36700D02*
D03*
X39500Y34859D02*
D03*
D30*
X31800Y26700D02*
D03*
Y25700D02*
D03*
X30800Y26700D02*
D03*
Y25700D02*
D03*
X29800Y26700D02*
D03*
X22891Y27950D02*
D03*
D31*
X29800Y25700D02*
D03*
X21709Y27950D02*
D03*
D32*
X21600Y23800D02*
D03*
D33*
X23159D02*
D03*
M02*
