G04*
G04 #@! TF.GenerationSoftware,Altium Limited,Altium Designer,20.0.2 (26)*
G04*
G04 Layer_Color=2752767*
%FSLAX24Y24*%
%MOIN*%
G70*
G01*
G75*
%ADD10C,0.0100*%
%ADD49C,0.0020*%
%ADD50C,0.0027*%
D10*
X18434Y46259D02*
G03*
X16465Y44291I0J-1969D01*
G01*
X41269D02*
G03*
X39300Y46259I-1969J0D01*
G01*
Y19882D02*
G03*
X41269Y21850I0J1969D01*
G01*
X16465D02*
G03*
X18434Y19882I1969J0D01*
G01*
X41269Y44291D02*
X41269Y21850D01*
X39500Y46249D02*
Y46259D01*
X18434D02*
X39500D01*
X18434Y19882D02*
X39300D01*
X16465Y44291D02*
X16465Y21850D01*
D49*
X33570Y28920D02*
Y29080D01*
X33730D01*
Y28920D01*
X33570D01*
Y29920D02*
Y30080D01*
X33730D01*
Y29920D01*
X33570D01*
Y30920D02*
Y31080D01*
X33730D01*
Y30920D01*
X33570D01*
Y31920D02*
Y32080D01*
X33730D01*
Y31920D01*
X33570D01*
Y32920D02*
Y33080D01*
X33730D01*
Y32920D01*
X33570D01*
Y33920D02*
Y34080D01*
X33730D01*
Y33920D01*
X33570D01*
Y34920D02*
Y35080D01*
X33730D01*
Y34920D01*
X33570D01*
Y35920D02*
Y36080D01*
X33730D01*
Y35920D01*
X33570D01*
Y36920D02*
Y37080D01*
X33730D01*
Y36920D01*
X33570D01*
Y37920D02*
Y38080D01*
X33730D01*
Y37920D01*
X33570D01*
Y38920D02*
Y39080D01*
X33730D01*
Y38920D01*
X33570D01*
Y39920D02*
Y40080D01*
X33730D01*
Y39920D01*
X33570D01*
Y40920D02*
Y41080D01*
X33730D01*
Y40920D01*
X33570D01*
Y41920D02*
Y42080D01*
X33730D01*
Y41920D01*
X33570D01*
Y42920D02*
Y43080D01*
X33730D01*
Y42920D01*
X33570D01*
X27468Y28920D02*
Y29080D01*
X27628D01*
Y28920D01*
X27468D01*
Y29920D02*
Y30080D01*
X27628D01*
Y29920D01*
X27468D01*
Y30920D02*
Y31080D01*
X27628D01*
Y30920D01*
X27468D01*
Y31920D02*
Y32080D01*
X27628D01*
Y31920D01*
X27468D01*
Y32920D02*
Y33080D01*
X27628D01*
Y32920D01*
X27468D01*
Y33920D02*
Y34080D01*
X27628D01*
Y33920D01*
X27468D01*
Y34920D02*
Y35080D01*
X27628D01*
Y34920D01*
X27468D01*
Y35920D02*
Y36080D01*
X27628D01*
Y35920D01*
X27468D01*
Y36920D02*
Y37080D01*
X27628D01*
Y36920D01*
X27468D01*
Y37920D02*
Y38080D01*
X27628D01*
Y37920D01*
X27468D01*
Y38920D02*
Y39080D01*
X27628D01*
Y38920D01*
X27468D01*
Y39920D02*
Y40080D01*
X27628D01*
Y39920D01*
X27468D01*
Y40920D02*
Y41080D01*
X27628D01*
Y40920D01*
X27468D01*
Y41920D02*
Y42080D01*
X27628D01*
Y41920D01*
X27468D01*
Y42920D02*
Y43080D01*
X27628D01*
Y42920D01*
X27468D01*
X29319Y20839D02*
X29239Y20999D01*
X29399D01*
X29319Y20839D01*
X31681D02*
X31601Y20999D01*
X31761D01*
X31681Y20839D01*
X29319Y23201D02*
X29239Y23361D01*
X29399D01*
X29319Y23201D01*
X31681D02*
X31601Y23361D01*
X31761D01*
X31681Y23201D01*
X33619Y20839D02*
X33539Y20999D01*
X33699D01*
X33619Y20839D01*
X35981D02*
X35901Y20999D01*
X36061D01*
X35981Y20839D01*
X33619Y23201D02*
X33539Y23361D01*
X33699D01*
X33619Y23201D01*
X35981D02*
X35901Y23361D01*
X36061D01*
X35981Y23201D01*
X23334Y38089D02*
X23374Y38128D01*
X23414D01*
X23374Y38168D01*
X23414Y38208D01*
X23374D01*
X23334Y38249D01*
X23294Y38208D01*
X23254D01*
X23294Y38168D01*
X23254Y38128D01*
X23294D01*
X23334Y38089D01*
X22350Y34151D02*
X22390Y34192D01*
X22430D01*
X22390Y34232D01*
X22430Y34272D01*
X22390D01*
X22350Y34311D01*
X22310Y34272D01*
X22270D01*
X22310Y34232D01*
X22270Y34192D01*
X22310D01*
X22350Y34151D01*
X21366Y38089D02*
X21406Y38128D01*
X21446D01*
X21406Y38168D01*
X21446Y38208D01*
X21406D01*
X21366Y38249D01*
X21326Y38208D01*
X21286D01*
X21326Y38168D01*
X21286Y38128D01*
X21326D01*
X21366Y38089D01*
X23116Y41870D02*
X23156Y41950D01*
X23116Y42030D01*
X23196Y41990D01*
X23276Y42030D01*
X23236Y41950D01*
X23276Y41870D01*
X23196Y41910D01*
X23116Y41870D01*
Y44862D02*
X23156Y44942D01*
X23116Y45022D01*
X23196Y44982D01*
X23276Y45022D01*
X23236Y44942D01*
X23276Y44862D01*
X23196Y44902D01*
X23116Y44862D01*
X36500Y41120D02*
X36540Y41200D01*
X36500Y41280D01*
X36580Y41240D01*
X36660Y41280D01*
X36620Y41200D01*
X36660Y41120D01*
X36580Y41160D01*
X36500Y41120D01*
Y42120D02*
X36540Y42200D01*
X36500Y42280D01*
X36580Y42240D01*
X36660Y42280D01*
X36620Y42200D01*
X36660Y42120D01*
X36580Y42160D01*
X36500Y42120D01*
Y43120D02*
X36540Y43200D01*
X36500Y43280D01*
X36580Y43240D01*
X36660Y43280D01*
X36620Y43200D01*
X36660Y43120D01*
X36580Y43160D01*
X36500Y43120D01*
Y44120D02*
X36540Y44200D01*
X36500Y44280D01*
X36580Y44240D01*
X36660Y44280D01*
X36620Y44200D01*
X36660Y44120D01*
X36580Y44160D01*
X36500Y44120D01*
X36120Y38270D02*
X36160Y38350D01*
X36120Y38430D01*
X36200Y38390D01*
X36280Y38430D01*
X36240Y38350D01*
X36280Y38270D01*
X36200Y38310D01*
X36120Y38270D01*
Y37270D02*
X36160Y37350D01*
X36120Y37430D01*
X36200Y37390D01*
X36280Y37430D01*
X36240Y37350D01*
X36280Y37270D01*
X36200Y37310D01*
X36120Y37270D01*
Y36270D02*
X36160Y36350D01*
X36120Y36430D01*
X36200Y36390D01*
X36280Y36430D01*
X36240Y36350D01*
X36280Y36270D01*
X36200Y36310D01*
X36120Y36270D01*
Y35270D02*
X36160Y35350D01*
X36120Y35430D01*
X36200Y35390D01*
X36280Y35430D01*
X36240Y35350D01*
X36280Y35270D01*
X36200Y35310D01*
X36120Y35270D01*
X38820Y32370D02*
X38860Y32450D01*
X38820Y32530D01*
X38900Y32490D01*
X38980Y32530D01*
X38940Y32450D01*
X38980Y32370D01*
X38900Y32410D01*
X38820Y32370D01*
Y31370D02*
X38860Y31450D01*
X38820Y31530D01*
X38900Y31490D01*
X38980Y31530D01*
X38940Y31450D01*
X38980Y31370D01*
X38900Y31410D01*
X38820Y31370D01*
Y30370D02*
X38860Y30450D01*
X38820Y30530D01*
X38900Y30490D01*
X38980Y30530D01*
X38940Y30450D01*
X38980Y30370D01*
X38900Y30410D01*
X38820Y30370D01*
Y29370D02*
X38860Y29450D01*
X38820Y29530D01*
X38900Y29490D01*
X38980Y29530D01*
X38940Y29450D01*
X38980Y29370D01*
X38900Y29410D01*
X38820Y29370D01*
Y28370D02*
X38860Y28450D01*
X38820Y28530D01*
X38900Y28490D01*
X38980Y28530D01*
X38940Y28450D01*
X38980Y28370D01*
X38900Y28410D01*
X38820Y28370D01*
X37720Y32370D02*
X37760Y32450D01*
X37720Y32530D01*
X37800Y32490D01*
X37880Y32530D01*
X37840Y32450D01*
X37880Y32370D01*
X37800Y32410D01*
X37720Y32370D01*
Y31370D02*
X37760Y31450D01*
X37720Y31530D01*
X37800Y31490D01*
X37880Y31530D01*
X37840Y31450D01*
X37880Y31370D01*
X37800Y31410D01*
X37720Y31370D01*
Y30370D02*
X37760Y30450D01*
X37720Y30530D01*
X37800Y30490D01*
X37880Y30530D01*
X37840Y30450D01*
X37880Y30370D01*
X37800Y30410D01*
X37720Y30370D01*
Y29370D02*
X37760Y29450D01*
X37720Y29530D01*
X37800Y29490D01*
X37880Y29530D01*
X37840Y29450D01*
X37880Y29370D01*
X37800Y29410D01*
X37720Y29370D01*
Y28370D02*
X37760Y28450D01*
X37720Y28530D01*
X37800Y28490D01*
X37880Y28530D01*
X37840Y28450D01*
X37880Y28370D01*
X37800Y28410D01*
X37720Y28370D01*
X36620Y32370D02*
X36660Y32450D01*
X36620Y32530D01*
X36700Y32490D01*
X36780Y32530D01*
X36740Y32450D01*
X36780Y32370D01*
X36700Y32410D01*
X36620Y32370D01*
Y31370D02*
X36660Y31450D01*
X36620Y31530D01*
X36700Y31490D01*
X36780Y31530D01*
X36740Y31450D01*
X36780Y31370D01*
X36700Y31410D01*
X36620Y31370D01*
Y30370D02*
X36660Y30450D01*
X36620Y30530D01*
X36700Y30490D01*
X36780Y30530D01*
X36740Y30450D01*
X36780Y30370D01*
X36700Y30410D01*
X36620Y30370D01*
Y29370D02*
X36660Y29450D01*
X36620Y29530D01*
X36700Y29490D01*
X36780Y29530D01*
X36740Y29450D01*
X36780Y29370D01*
X36700Y29410D01*
X36620Y29370D01*
Y28370D02*
X36660Y28450D01*
X36620Y28530D01*
X36700Y28490D01*
X36780Y28530D01*
X36740Y28450D01*
X36780Y28370D01*
X36700Y28410D01*
X36620Y28370D01*
X32420Y45120D02*
X32460Y45200D01*
X32420Y45280D01*
X32500Y45240D01*
X32580Y45280D01*
X32540Y45200D01*
X32580Y45120D01*
X32500Y45160D01*
X32420Y45120D01*
X33420D02*
X33460Y45200D01*
X33420Y45280D01*
X33500Y45240D01*
X33580Y45280D01*
X33540Y45200D01*
X33580Y45120D01*
X33500Y45160D01*
X33420Y45120D01*
X34420D02*
X34460Y45200D01*
X34420Y45280D01*
X34500Y45240D01*
X34580Y45280D01*
X34540Y45200D01*
X34580Y45120D01*
X34500Y45160D01*
X34420Y45120D01*
X26370Y45120D02*
X26410Y45200D01*
X26370Y45280D01*
X26450Y45240D01*
X26530Y45280D01*
X26490Y45200D01*
X26530Y45120D01*
X26450Y45160D01*
X26370Y45120D01*
X27370D02*
X27410Y45200D01*
X27370Y45280D01*
X27450Y45240D01*
X27530Y45280D01*
X27490Y45200D01*
X27530Y45120D01*
X27450Y45160D01*
X27370Y45120D01*
X28370D02*
X28410Y45200D01*
X28370Y45280D01*
X28450Y45240D01*
X28530Y45280D01*
X28490Y45200D01*
X28530Y45120D01*
X28450Y45160D01*
X28370Y45120D01*
X31720Y26620D02*
X31760Y26700D01*
X31720Y26780D01*
X31800Y26740D01*
X31880Y26780D01*
X31840Y26700D01*
X31880Y26620D01*
X31800Y26660D01*
X31720Y26620D01*
Y25620D02*
X31760Y25700D01*
X31720Y25780D01*
X31800Y25740D01*
X31880Y25780D01*
X31840Y25700D01*
X31880Y25620D01*
X31800Y25660D01*
X31720Y25620D01*
X30720Y26620D02*
X30760Y26700D01*
X30720Y26780D01*
X30800Y26740D01*
X30880Y26780D01*
X30840Y26700D01*
X30880Y26620D01*
X30800Y26660D01*
X30720Y26620D01*
Y25620D02*
X30760Y25700D01*
X30720Y25780D01*
X30800Y25740D01*
X30880Y25780D01*
X30840Y25700D01*
X30880Y25620D01*
X30800Y25660D01*
X30720Y25620D01*
X29720Y26620D02*
X29760Y26700D01*
X29720Y26780D01*
X29800Y26740D01*
X29880Y26780D01*
X29840Y26700D01*
X29880Y26620D01*
X29800Y26660D01*
X29720Y26620D01*
Y25620D02*
X29760Y25700D01*
X29720Y25780D01*
X29800Y25740D01*
X29880Y25780D01*
X29840Y25700D01*
X29880Y25620D01*
X29800Y25660D01*
X29720Y25620D01*
X27601Y22975D02*
X27641Y23055D01*
X27601Y23135D01*
X27681Y23095D01*
X27761Y23135D01*
X27721Y23055D01*
X27761Y22975D01*
X27681Y23015D01*
X27601Y22975D01*
Y21990D02*
X27641Y22070D01*
X27601Y22150D01*
X27681Y22110D01*
X27761Y22150D01*
X27721Y22070D01*
X27761Y21990D01*
X27681Y22030D01*
X27601Y21990D01*
Y21006D02*
X27641Y21086D01*
X27601Y21166D01*
X27681Y21126D01*
X27761Y21166D01*
X27721Y21086D01*
X27761Y21006D01*
X27681Y21046D01*
X27601Y21006D01*
X25239Y22975D02*
X25279Y23055D01*
X25239Y23135D01*
X25319Y23095D01*
X25399Y23135D01*
X25359Y23055D01*
X25399Y22975D01*
X25319Y23015D01*
X25239Y22975D01*
Y21990D02*
X25279Y22070D01*
X25239Y22150D01*
X25319Y22110D01*
X25399Y22150D01*
X25359Y22070D01*
X25399Y21990D01*
X25319Y22030D01*
X25239Y21990D01*
Y21006D02*
X25279Y21086D01*
X25239Y21166D01*
X25319Y21126D01*
X25399Y21166D01*
X25359Y21086D01*
X25399Y21006D01*
X25319Y21046D01*
X25239Y21006D01*
X39420Y36779D02*
X39460Y36859D01*
X39420Y36939D01*
X39500Y36899D01*
X39580Y36939D01*
X39540Y36859D01*
X39580Y36779D01*
X39500Y36819D01*
X39420Y36779D01*
Y35779D02*
X39460Y35859D01*
X39420Y35939D01*
X39500Y35899D01*
X39580Y35939D01*
X39540Y35859D01*
X39580Y35779D01*
X39500Y35819D01*
X39420Y35779D01*
Y34779D02*
X39460Y34859D01*
X39420Y34939D01*
X39500Y34899D01*
X39580Y34939D01*
X39540Y34859D01*
X39580Y34779D01*
X39500Y34819D01*
X39420Y34779D01*
X18070Y27020D02*
X18110Y27100D01*
X18070Y27180D01*
X18150Y27140D01*
X18230Y27180D01*
X18190Y27100D01*
X18230Y27020D01*
X18150Y27060D01*
X18070Y27020D01*
Y28020D02*
X18110Y28100D01*
X18070Y28180D01*
X18150Y28140D01*
X18230Y28180D01*
X18190Y28100D01*
X18230Y28020D01*
X18150Y28060D01*
X18070Y28020D01*
Y29020D02*
X18110Y29100D01*
X18070Y29180D01*
X18150Y29140D01*
X18230Y29180D01*
X18190Y29100D01*
X18230Y29020D01*
X18150Y29060D01*
X18070Y29020D01*
Y30020D02*
X18110Y30100D01*
X18070Y30180D01*
X18150Y30140D01*
X18230Y30180D01*
X18190Y30100D01*
X18230Y30020D01*
X18150Y30060D01*
X18070Y30020D01*
Y31020D02*
X18110Y31100D01*
X18070Y31180D01*
X18150Y31140D01*
X18230Y31180D01*
X18190Y31100D01*
X18230Y31020D01*
X18150Y31060D01*
X18070Y31020D01*
Y36320D02*
X18110Y36400D01*
X18070Y36480D01*
X18150Y36440D01*
X18230Y36480D01*
X18190Y36400D01*
X18230Y36320D01*
X18150Y36360D01*
X18070Y36320D01*
Y37320D02*
X18110Y37400D01*
X18070Y37480D01*
X18150Y37440D01*
X18230Y37480D01*
X18190Y37400D01*
X18230Y37320D01*
X18150Y37360D01*
X18070Y37320D01*
Y38320D02*
X18110Y38400D01*
X18070Y38480D01*
X18150Y38440D01*
X18230Y38480D01*
X18190Y38400D01*
X18230Y38320D01*
X18150Y38360D01*
X18070Y38320D01*
Y39320D02*
X18110Y39400D01*
X18070Y39480D01*
X18150Y39440D01*
X18230Y39480D01*
X18190Y39400D01*
X18230Y39320D01*
X18150Y39360D01*
X18070Y39320D01*
X21560Y23760D02*
Y23720D01*
X21640D01*
Y23760D01*
X21680D01*
Y23840D01*
X21640D01*
Y23880D01*
X21560D01*
Y23840D01*
X21520D01*
Y23760D01*
X21560D01*
X23119D02*
Y23720D01*
X23199D01*
Y23760D01*
X23239D01*
Y23840D01*
X23199D01*
Y23880D01*
X23119D01*
Y23840D01*
X23079D01*
Y23760D01*
X23119D01*
X22270Y30620D02*
X22310Y30700D01*
X22270Y30780D01*
X22350Y30740D01*
X22430Y30780D01*
X22390Y30700D01*
X22430Y30620D01*
X22350Y30660D01*
X22270Y30620D01*
Y31620D02*
X22310Y31700D01*
X22270Y31780D01*
X22350Y31740D01*
X22430Y31780D01*
X22390Y31700D01*
X22430Y31620D01*
X22350Y31660D01*
X22270Y31620D01*
X21629Y27870D02*
Y28030D01*
X21789D01*
Y27870D01*
X21629D01*
X22811D02*
Y28030D01*
X22971D01*
Y27870D01*
X22811D01*
X22470Y33420D02*
X22510D01*
X22550Y33460D01*
X22590Y33420D01*
X22630D01*
Y33460D01*
X22590Y33500D01*
X22630Y33540D01*
Y33580D01*
X22590D01*
X22550Y33540D01*
X22510Y33580D01*
X22470D01*
Y33540D01*
X22510Y33500D01*
X22470Y33460D01*
Y33420D01*
X20720D02*
X20760D01*
X20800Y33460D01*
X20840Y33420D01*
X20880D01*
Y33460D01*
X20840Y33500D01*
X20880Y33540D01*
Y33580D01*
X20840D01*
X20800Y33540D01*
X20760Y33580D01*
X20720D01*
Y33540D01*
X20760Y33500D01*
X20720Y33460D01*
Y33420D01*
X26470Y37270D02*
X26510D01*
X26550Y37310D01*
X26590Y37270D01*
X26630D01*
Y37310D01*
X26590Y37350D01*
X26630Y37390D01*
Y37430D01*
X26590D01*
X26550Y37390D01*
X26510Y37430D01*
X26470D01*
Y37390D01*
X26510Y37350D01*
X26470Y37310D01*
Y37270D01*
X31570Y41420D02*
X31610D01*
X31650Y41460D01*
X31690Y41420D01*
X31730D01*
Y41460D01*
X31690Y41500D01*
X31730Y41540D01*
Y41580D01*
X31690D01*
X31650Y41540D01*
X31610Y41580D01*
X31570D01*
Y41540D01*
X31610Y41500D01*
X31570Y41460D01*
Y41420D01*
X24470Y39370D02*
X24510D01*
X24550Y39410D01*
X24590Y39370D01*
X24630D01*
Y39410D01*
X24590Y39450D01*
X24630Y39490D01*
Y39530D01*
X24590D01*
X24550Y39490D01*
X24510Y39530D01*
X24470D01*
Y39490D01*
X24510Y39450D01*
X24470Y39410D01*
Y39370D01*
X25570Y40370D02*
X25610D01*
X25650Y40410D01*
X25690Y40370D01*
X25730D01*
Y40410D01*
X25690Y40450D01*
X25730Y40490D01*
Y40530D01*
X25690D01*
X25650Y40490D01*
X25610Y40530D01*
X25570D01*
Y40490D01*
X25610Y40450D01*
X25570Y40410D01*
Y40370D01*
D50*
X39380Y44291D02*
G03*
X39380Y44291I-80J0D01*
G01*
X18514Y21850D02*
G03*
X18514Y21850I-80J0D01*
G01*
X39380D02*
G03*
X39380Y21850I-80J0D01*
G01*
X18514Y44291D02*
G03*
X18514Y44291I-80J0D01*
G01*
M02*
