M48
;Layer_Color=9474304
;FILE_FORMAT=2:4
INCH,LZ
;TYPE=PLATED
T1F00S00C0.0120
T2F00S00C0.0300
T3F00S00C0.0315
T4F00S00C0.0354
T5F00S00C0.0472
T6F00S00C0.0512
T7F00S00C0.1250
%
T01
X0208Y0335
X02255
X02655Y03735
X02565Y04045
X02455Y03945
X03165Y0415
T02
X031681Y020919
X033619
X035981
Y023281
X033619
X031681
X029319
Y020919
T03
X03365Y029
Y03
Y031
X027548
Y03
Y029
X022891Y02795
X021709
X027548Y032
Y033
Y034
Y035
Y036
Y037
Y038
Y039
Y04
Y041
Y042
Y043
X03365
Y042
Y041
Y04
Y039
Y038
Y037
Y036
Y035
Y034
Y033
Y032
T04
X0318Y0257
Y0267
X0367Y02845
Y02945
Y03045
X0378
Y02945
Y02845
X0389
Y02945
Y03045
X0308Y0267
Y0257
X0298
Y0267
X027681Y023055
Y02207
Y021086
X025319
Y02207
Y023055
X02235Y0307
X01815Y0311
Y0301
Y0291
Y0281
Y0271
X02235Y0317
X01815Y0364
Y0374
Y0384
Y0394
X023196Y04195
Y044942
X02645Y0452
X02745
X02845
X0325Y0452
X0335
X0345
X03658Y0442
Y0432
Y0422
Y0412
X0362Y03835
Y03735
Y03635
Y03535
X0367Y03245
Y03145
X0378
Y03245
X0389
Y03145
X0395Y034859
Y035859
Y036859
T05
X02235Y034232
X023334Y038168
X021366
T06
X0216Y0238
X023159
T07
X0393Y02185
X018434
Y044291
X0393
M30
